name C:\Users\u0101727\Documents\MyRepositories\upper-imu-dc\OpenSim\subject0\MA\ResultsMA\grid_4nodes_9dim\angles_19.mot
datacolumns 10
datarows 42
range 1925.01000000 1925.42000000
endheader 
time	clav_prot	clav_elev	scapula_abduction	scapula_elevation	scapula_upward_rot	scapula_winging	plane_elv	shoulder_elv	axial_rot	
       1925.01000000	        -50.00000000	          0.00000000	         15.00000000	         10.00000000	         90.00000000	         10.00000000	         30.00000000	        100.00000000	         30.00000000	
       1925.02000000	        -38.33333333	          0.00000000	         15.00000000	         10.00000000	         90.00000000	         10.00000000	         30.00000000	        100.00000000	         30.00000000	
       1925.03000000	        -26.66666667	          0.00000000	         15.00000000	         10.00000000	         90.00000000	         10.00000000	         30.00000000	        100.00000000	         30.00000000	
       1925.04000000	        -15.00000000	          0.00000000	         15.00000000	         10.00000000	         90.00000000	         10.00000000	         30.00000000	        100.00000000	         30.00000000	
       1925.05000000	        -50.00000000	         10.00000000	         15.00000000	         10.00000000	         90.00000000	         10.00000000	         30.00000000	        100.00000000	         30.00000000	
       1925.06000000	        -38.33333333	         10.00000000	         15.00000000	         10.00000000	         90.00000000	         10.00000000	         30.00000000	        100.00000000	         30.00000000	
       1925.07000000	        -26.66666667	         10.00000000	         15.00000000	         10.00000000	         90.00000000	         10.00000000	         30.00000000	        100.00000000	         30.00000000	
       1925.08000000	        -15.00000000	         10.00000000	         15.00000000	         10.00000000	         90.00000000	         10.00000000	         30.00000000	        100.00000000	         30.00000000	
       1925.09000000	        -50.00000000	         20.00000000	         15.00000000	         10.00000000	         90.00000000	         10.00000000	         30.00000000	        100.00000000	         30.00000000	
       1925.10000000	        -38.33333333	         20.00000000	         15.00000000	         10.00000000	         90.00000000	         10.00000000	         30.00000000	        100.00000000	         30.00000000	
       1925.11000000	        -26.66666667	         20.00000000	         15.00000000	         10.00000000	         90.00000000	         10.00000000	         30.00000000	        100.00000000	         30.00000000	
       1925.12000000	        -15.00000000	         20.00000000	         15.00000000	         10.00000000	         90.00000000	         10.00000000	         30.00000000	        100.00000000	         30.00000000	
       1925.13000000	        -50.00000000	        -10.00000000	        -40.00000000	        -10.00000000	          0.00000000	        -20.00000000	         90.00000000	        100.00000000	         30.00000000	
       1925.14000000	        -38.33333333	        -10.00000000	        -40.00000000	        -10.00000000	          0.00000000	        -20.00000000	         90.00000000	        100.00000000	         30.00000000	
       1925.15000000	        -26.66666667	        -10.00000000	        -40.00000000	        -10.00000000	          0.00000000	        -20.00000000	         90.00000000	        100.00000000	         30.00000000	
       1925.16000000	        -15.00000000	        -10.00000000	        -40.00000000	        -10.00000000	          0.00000000	        -20.00000000	         90.00000000	        100.00000000	         30.00000000	
       1925.17000000	        -50.00000000	          0.00000000	        -40.00000000	        -10.00000000	          0.00000000	        -20.00000000	         90.00000000	        100.00000000	         30.00000000	
       1925.18000000	        -38.33333333	          0.00000000	        -40.00000000	        -10.00000000	          0.00000000	        -20.00000000	         90.00000000	        100.00000000	         30.00000000	
       1925.19000000	        -26.66666667	          0.00000000	        -40.00000000	        -10.00000000	          0.00000000	        -20.00000000	         90.00000000	        100.00000000	         30.00000000	
       1925.20000000	        -15.00000000	          0.00000000	        -40.00000000	        -10.00000000	          0.00000000	        -20.00000000	         90.00000000	        100.00000000	         30.00000000	
       1925.21000000	        -50.00000000	         10.00000000	        -40.00000000	        -10.00000000	          0.00000000	        -20.00000000	         90.00000000	        100.00000000	         30.00000000	
       1925.22000000	        -38.33333333	         10.00000000	        -40.00000000	        -10.00000000	          0.00000000	        -20.00000000	         90.00000000	        100.00000000	         30.00000000	
       1925.23000000	        -26.66666667	         10.00000000	        -40.00000000	        -10.00000000	          0.00000000	        -20.00000000	         90.00000000	        100.00000000	         30.00000000	
       1925.24000000	        -15.00000000	         10.00000000	        -40.00000000	        -10.00000000	          0.00000000	        -20.00000000	         90.00000000	        100.00000000	         30.00000000	
       1925.25000000	        -50.00000000	         20.00000000	        -40.00000000	        -10.00000000	          0.00000000	        -20.00000000	         90.00000000	        100.00000000	         30.00000000	
       1925.26000000	        -38.33333333	         20.00000000	        -40.00000000	        -10.00000000	          0.00000000	        -20.00000000	         90.00000000	        100.00000000	         30.00000000	
       1925.27000000	        -26.66666667	         20.00000000	        -40.00000000	        -10.00000000	          0.00000000	        -20.00000000	         90.00000000	        100.00000000	         30.00000000	
       1925.28000000	        -15.00000000	         20.00000000	        -40.00000000	        -10.00000000	          0.00000000	        -20.00000000	         90.00000000	        100.00000000	         30.00000000	
       1925.29000000	        -50.00000000	        -10.00000000	        -21.66666667	        -10.00000000	          0.00000000	        -20.00000000	         90.00000000	        100.00000000	         30.00000000	
       1925.30000000	        -38.33333333	        -10.00000000	        -21.66666667	        -10.00000000	          0.00000000	        -20.00000000	         90.00000000	        100.00000000	         30.00000000	
       1925.31000000	        -26.66666667	        -10.00000000	        -21.66666667	        -10.00000000	          0.00000000	        -20.00000000	         90.00000000	        100.00000000	         30.00000000	
       1925.32000000	        -15.00000000	        -10.00000000	        -21.66666667	        -10.00000000	          0.00000000	        -20.00000000	         90.00000000	        100.00000000	         30.00000000	
       1925.33000000	        -50.00000000	          0.00000000	        -21.66666667	        -10.00000000	          0.00000000	        -20.00000000	         90.00000000	        100.00000000	         30.00000000	
       1925.34000000	        -38.33333333	          0.00000000	        -21.66666667	        -10.00000000	          0.00000000	        -20.00000000	         90.00000000	        100.00000000	         30.00000000	
       1925.35000000	        -26.66666667	          0.00000000	        -21.66666667	        -10.00000000	          0.00000000	        -20.00000000	         90.00000000	        100.00000000	         30.00000000	
       1925.36000000	        -15.00000000	          0.00000000	        -21.66666667	        -10.00000000	          0.00000000	        -20.00000000	         90.00000000	        100.00000000	         30.00000000	
       1925.37000000	        -50.00000000	         10.00000000	        -21.66666667	        -10.00000000	          0.00000000	        -20.00000000	         90.00000000	        100.00000000	         30.00000000	
       1925.38000000	        -38.33333333	         10.00000000	        -21.66666667	        -10.00000000	          0.00000000	        -20.00000000	         90.00000000	        100.00000000	         30.00000000	
       1925.39000000	        -26.66666667	         10.00000000	        -21.66666667	        -10.00000000	          0.00000000	        -20.00000000	         90.00000000	        100.00000000	         30.00000000	
       1925.40000000	        -15.00000000	         10.00000000	        -21.66666667	        -10.00000000	          0.00000000	        -20.00000000	         90.00000000	        100.00000000	         30.00000000	
       1925.41000000	        -50.00000000	         20.00000000	        -21.66666667	        -10.00000000	          0.00000000	        -20.00000000	         90.00000000	        100.00000000	         30.00000000	
       1925.42000000	        -38.33333333	         20.00000000	        -21.66666667	        -10.00000000	          0.00000000	        -20.00000000	         90.00000000	        100.00000000	         30.00000000	
